<?xml version="1.0" encoding="UTF-8" standalone="no"?>
<!-- Created with Inkscape (http://www.inkscape.org/) -->
<svg xmlns:dc="http://purl.org/dc/elements/1.1/" xmlns:cc="http://web.resource.org/cc/" xmlns:rdf="http://www.w3.org/1999/02/22-rdf-syntax-ns#" xmlns:svg="http://www.w3.org/2000/svg" xmlns="http://www.w3.org/2000/svg" xmlns:sodipodi="http://sodipodi.sourceforge.net/DTD/sodipodi-0.dtd" xmlns:inkscape="http://www.inkscape.org/namespaces/inkscape" width="240" height="120" id="svg2" sodipodi:version="0.32" inkscape:version="0.45.1" version="1.0" sodipodi:docbase="C:\Documents and Settings\JJB\My Documents" sodipodi:docname="Feedback Loop.svg" inkscape:output_extension="org.inkscape.output.svg.inkscape">
  <sodipodi:namedview id="base" pagecolor="#ffffff" bordercolor="#666666" borderopacity="1.0" gridtolerance="10000" guidetolerance="10" objecttolerance="10" inkscape:pageopacity="0.0" inkscape:pageshadow="2" inkscape:zoom="1" inkscape:cx="153.1606" inkscape:cy="63.677944" inkscape:document-units="px" inkscape:current-layer="layer1" width="240px" height="120px" gridspacingx="5px" gridspacingy="5px" showgrid="true" inkscape:grid-points="true" inkscape:window-width="1404" inkscape:window-height="874" inkscape:window-x="32" inkscape:window-y="-4" gridempspacing="4"/>
  <defs id="defs4"/>
  <metadata id="metadata7">
    <rdf:RDF>
      <cc:Work rdf:about="">
        <dc:format>image/svg+xml</dc:format>
        <dc:type rdf:resource="http://purl.org/dc/dcmitype/StillImage"/>
      </cc:Work>
    </rdf:RDF>
  </metadata>
  <g inkscape:label="Layer 1" id="layer1" inkscape:groupmode="layer">
    <rect style="fill:none;fill-opacity:1;stroke:#000000;stroke-width:2;stroke-opacity:1" id="rect2164" width="50.000359" y="4.8387098" x="-169.8385" height="40.299561" transform="scale(-1,1)"/>
    <path style="fill:none;fill-rule:evenodd;stroke:#000000;stroke-width:2;stroke-linecap:butt;stroke-linejoin:miter;stroke-opacity:1" d="M 118.60852,25 L 75,25" id="path2186"/>
    <path style="fill:none;fill-rule:evenodd;stroke:#000000;stroke-width:2;stroke-linecap:butt;stroke-linejoin:miter;stroke-opacity:1" d="M 54.81673,25.000002 L 10,25" id="path2188" sodipodi:nodetypes="cc"/>
    <path style="fill:#000000;fill-opacity:1;fill-rule:evenodd;stroke:#000000;stroke-width:1.00000012;stroke-linecap:butt;stroke-linejoin:miter;stroke-miterlimit:3;stroke-dasharray:none;stroke-opacity:1" d="M 120.22388,25.000001 L 110.22388,22.500001 L 110.22388,27.500001 L 120.22388,25.000001" id="path2242"/>
    <path style="fill:#000000;fill-opacity:1;fill-rule:evenodd;stroke:#000000;stroke-width:1.00000012;stroke-linecap:butt;stroke-linejoin:miter;stroke-miterlimit:3;stroke-dasharray:none;stroke-opacity:1" d="M 55.5,25 L 45.5,22.5 L 45.5,27.5 L 55.5,25" id="path3218"/>
    <path style="fill:none;fill-rule:evenodd;stroke:#000000;stroke-width:2;stroke-linecap:butt;stroke-linejoin:miter;stroke-opacity:1" d="M 225,25 L 170,25" id="path3418" sodipodi:nodetypes="cc"/>
    <path style="fill:#000000;fill-opacity:1;fill-rule:evenodd;stroke:#000000;stroke-width:1.00000012;stroke-linecap:butt;stroke-linejoin:miter;stroke-miterlimit:3;stroke-dasharray:none;stroke-opacity:1" d="M 230,25 L 220,22.5 L 220,27.5 L 230,25" id="path3420"/>
    <path style="font-style:normal;font-variant:normal;font-weight:normal;font-stretch:normal;letter-spacing:normal;word-spacing:normal;text-anchor:start;fill:#000000;fill-opacity:1;fill-rule:evenodd;stroke:#000000;stroke-width:0;stroke-linecap:butt;stroke-linejoin:miter;stroke-miterlimit:10.43299961;stroke-dasharray:none;stroke-dashoffset:0;stroke-opacity:1" id="path3447" d="M 22.57388,11.72715 L 20.78245,7.47572 C 20.71388,7.30429 20.67531,7.22286 20.67531,7.19715 C 20.67531,7.07286 21.03531,6.66572 21.93102,6.58001 C 22.14531,6.55858 22.35959,6.53715 22.35959,6.17286 C 22.35959,5.92001 22.10245,5.92001 22.03816,5.92001 C 21.16388,5.92001 20.24673,5.98429 19.35102,5.98429 C 18.81531,5.98429 17.49102,5.92001 16.95959,5.92001 C 16.83102,5.92001 16.57388,5.92001 16.57388,6.34429 C 16.57388,6.58001 16.78816,6.58001 17.06674,6.58001 C 18.34816,6.58001 18.47245,6.79429 18.66531,7.26572 L 21.18531,13.22286 L 16.68102,18.06572 C 16.55245,18.17286 16.53102,18.19429 16.40245,18.30143 C 15.35674,19.43286 14.35388,19.77143 13.26531,19.84 C 12.98674,19.85715 12.79388,19.85715 12.79388,20.26429 C 12.79388,20.28572 12.79388,20.5 13.07245,20.5 C 13.71531,20.5 14.41817,20.43572 15.08245,20.43572 C 15.87102,20.43572 16.70245,20.5 17.46959,20.5 C 17.59816,20.5 17.85531,20.5 17.85531,20.07143 C 17.85531,19.85715 17.64102,19.84 17.59816,19.84 C 17.40959,19.81857 16.74531,19.77143 16.74531,19.17572 C 16.74531,18.83286 17.06674,18.49429 17.32388,18.21572 L 19.49673,15.91 C 20.13959,15.20286 20.97102,14.33286 21.42102,13.81858 L 23.57673,18.91857 C 23.66245,19.15429 23.68388,19.17572 23.68388,19.21857 C 23.68388,19.39 23.27673,19.75429 22.44531,19.84 C 22.20959,19.85715 22.01673,19.87857 22.01673,20.24286 C 22.01673,20.5 22.25245,20.5 22.33816,20.5 C 22.93816,20.5 24.42959,20.43572 25.02959,20.43572 C 25.56102,20.43572 26.86388,20.5 27.39959,20.5 C 27.54959,20.5 27.80245,20.5 27.80245,20.09286 C 27.80245,19.84 27.59245,19.84 27.42102,19.84 C 25.98959,19.81857 25.94673,19.75429 25.58245,18.90143 C 24.75102,16.91286 23.31959,13.58286 22.83102,12.30143 C 24.27959,10.81001 26.5253,8.26858 27.20673,7.66858 C 27.82388,7.15858 28.63388,6.64429 29.91959,6.58001 C 30.19387,6.55858 30.38673,6.55858 30.38673,6.15572 C 30.38673,6.13429 30.38673,5.92001 30.10816,5.92001 C 29.46959,5.92001 28.76673,5.98429 28.10245,5.98429 C 27.31388,5.98429 26.49959,5.92001 25.73245,5.92001 C 25.60388,5.92001 25.32959,5.92001 25.32959,6.34429 C 25.32959,6.49429 25.43673,6.55858 25.58245,6.58001 C 25.7753,6.60143 26.43959,6.64429 26.43959,7.24429 C 26.43959,7.54001 26.20388,7.81858 26.03245,8.01143 L 22.57388,11.72715 z "/>
    <path style="font-style:normal;font-variant:normal;font-weight:normal;font-stretch:normal;letter-spacing:normal;word-spacing:normal;text-anchor:start;fill:#000000;fill-opacity:1;fill-rule:evenodd;stroke:#000000;stroke-width:0;stroke-linecap:butt;stroke-linejoin:miter;stroke-miterlimit:10.43299961;stroke-dasharray:none;stroke-dashoffset:0;stroke-opacity:1" id="path3449" d="M 222.79387,7.93428 L 223.09387,7.63428 C 223.73245,6.99142 224.4353,6.26714 225.88816,6.16 C 226.12387,6.13857 226.31673,6.13857 226.31673,5.75285 C 226.31673,5.58571 226.20959,5.5 226.03816,5.5 C 225.4853,5.5 224.86387,5.56428 224.28959,5.56428 C 223.58245,5.56428 222.83673,5.5 222.15102,5.5 C 222.02673,5.5 221.74816,5.5 221.74816,5.90714 C 221.74816,6.13857 221.96245,6.16 222.0653,6.16 C 222.21959,6.16 222.83673,6.20285 222.83673,6.65285 C 222.83673,7.01714 222.34387,7.57 222.25816,7.67714 L 217.30816,13.37714 L 214.95959,7.03428 C 214.83102,6.73857 214.83102,6.69571 214.83102,6.67428 C 214.83102,6.16 215.87673,6.16 216.09102,6.16 C 216.38673,6.16 216.60102,6.16 216.60102,5.73571 C 216.60102,5.5 216.34816,5.5 216.28388,5.5 C 215.68388,5.5 214.18816,5.56428 213.59245,5.56428 C 213.05673,5.56428 211.73245,5.5 211.20102,5.5 C 211.07245,5.5 210.79388,5.5 210.79388,5.92428 C 210.79388,6.16 211.00816,6.16 211.28673,6.16 C 212.56816,6.16 212.65388,6.35285 212.84673,6.88428 L 215.46959,13.91285 C 215.49102,13.97285 215.55531,14.20857 215.55531,14.27285 C 215.55531,14.33714 214.70245,17.77428 214.59531,18.15999 C 214.31673,19.33428 214.29531,19.39856 212.58959,19.41999 C 212.18245,19.41999 212.01102,19.41999 212.01102,19.84428 C 212.01102,20.07999 212.26816,20.07999 212.31102,20.07999 C 212.91102,20.07999 214.40245,20.01571 215.00245,20.01571 C 215.59816,20.01571 217.13673,20.07999 217.73245,20.07999 C 217.88245,20.07999 218.13959,20.07999 218.13959,19.65142 C 218.13959,19.41999 217.94673,19.41999 217.53959,19.41999 C 217.50102,19.41999 217.09388,19.41999 216.72959,19.37714 C 216.28388,19.33428 216.1553,19.29142 216.1553,19.03428 C 216.1553,18.88428 216.34816,18.13856 216.4553,17.68856 C 216.8153,16.27856 216.87959,15.96142 217.20102,14.67999 C 217.30816,14.27285 217.3253,14.20857 217.50102,14.01571 L 222.79387,7.93428 z "/>
    <path style="fill:none;fill-opacity:1;stroke:#000000;stroke-width:2;stroke-miterlimit:3;stroke-dasharray:none;stroke-opacity:1" id="path2321" sodipodi:cx="165" sodipodi:cy="25" sodipodi:type="arc" d="M 175 25 A 10 10 0 1 1  155,25 A 10 10 0 1 1  175 25 z" sodipodi:rx="10" sodipodi:ry="10" transform="matrix(-1,0,0,1,229.81673,0)"/>
    <rect style="fill:none;fill-opacity:1;stroke:#000000;stroke-width:2;stroke-opacity:1" id="rect2323" width="50.000359" y="75" x="-169.81709" height="40.299561" transform="scale(-1,1)"/>
    <path style="fill:none;fill-rule:evenodd;stroke:#000000;stroke-width:2;stroke-linecap:butt;stroke-linejoin:miter;stroke-opacity:1" d="M 195,25 L 195,95 L 175,95" id="path2325" sodipodi:nodetypes="ccc"/>
    <path style="fill:none;fill-rule:evenodd;stroke:#000000;stroke-width:2;stroke-linecap:butt;stroke-linejoin:miter;stroke-opacity:1" d="M 119.81673,95.089289 L 65,95.089288 L 65,35" id="path2327" sodipodi:nodetypes="ccc"/>
    <path style="fill:#000000;fill-opacity:1;fill-rule:evenodd;stroke:#000000;stroke-width:1.00000012;stroke-linecap:butt;stroke-linejoin:miter;stroke-miterlimit:3;stroke-dasharray:none;stroke-opacity:1" d="M 169.22388,95 L 179.22388,92.5 L 179.22388,97.5 L 169.22388,95" id="path2329"/>
    <path style="fill:#000000;fill-opacity:1;fill-rule:evenodd;stroke:#000000;stroke-width:1.00000012;stroke-linecap:butt;stroke-linejoin:miter;stroke-miterlimit:3;stroke-dasharray:none;stroke-opacity:1" d="M 64.81673,34.5 L 67.31673,44.5 L 62.31673,44.5 L 64.81673,34.5" id="path2331"/>
    <g id="g3008" transform="translate(29,0)">
      <path id="path2380" d="M 55.5,39.5 L 45.5,39.5" style="fill:none;fill-rule:evenodd;stroke:#000000;stroke-width:1px;stroke-linecap:butt;stroke-linejoin:miter;stroke-opacity:1"/>
      <path id="path2382" d="M 50.5,34.5 L 50.5,44.5" style="fill:none;fill-rule:evenodd;stroke:#000000;stroke-width:1px;stroke-linecap:butt;stroke-linejoin:miter;stroke-opacity:1"/>
      <path id="path2384" d="M 45.5,34.5 L 55.5,34.5" style="fill:none;fill-rule:evenodd;stroke:#000000;stroke-width:1px;stroke-linecap:butt;stroke-linejoin:miter;stroke-opacity:1"/>
    </g>
    <g id="g3004" transform="translate(-29,0)">
      <path id="path2386" d="M 79.5,5.5 L 79.5,15.5" style="fill:none;fill-rule:evenodd;stroke:#000000;stroke-width:1px;stroke-linecap:butt;stroke-linejoin:miter;stroke-opacity:1"/>
      <path id="path2388" d="M 74.5,10.5 L 84.5,10.5" style="fill:none;fill-rule:evenodd;stroke:#000000;stroke-width:1px;stroke-linecap:butt;stroke-linejoin:miter;stroke-opacity:1"/>
    </g>
    <g id="g2415" transform="matrix(6,0,0,6,13.606734,-875.5)">
      <g style="font-style:normal;font-variant:normal;font-weight:normal;font-stretch:normal;letter-spacing:normal;word-spacing:normal;text-anchor:start;fill:none;fill-opacity:1;fill-rule:evenodd;stroke:#000000;stroke-width:0.16666667;stroke-linecap:butt;stroke-linejoin:miter;stroke-miterlimit:10.43299961;stroke-dasharray:none;stroke-dashoffset:0;stroke-opacity:1" id="g2417" xml:space="preserve" transform="matrix(7.1428571e-2,0,0,-7.1428571e-2,-12.5,180)"><path style="fill:#000000;stroke-width:0" id="path2419" d="M 471.09,421.74 L 471.29,423.04 L 474.68,436.59 C 475.13,438.33 475.23,438.48 477.37,438.48 L 482.15,438.48 C 486.29,438.48 488.93,437.13 488.93,433.7 C 488.93,431.75 487.93,427.47 485.99,425.68 C 483.5,423.43 480.51,423.04 478.32,423.04 L 471.29,423.04 L 471.09,421.74 L 479.56,421.74 C 486.64,421.74 493.56,426.92 493.56,432.5 C 493.56,436.34 490.27,440.02 483.75,440.02 L 467.61,440.02 C 466.66,440.02 466.11,440.02 466.11,439.07 C 466.11,438.48 466.56,438.48 467.56,438.48 C 468.2,438.48 469.1,438.43 469.7,438.38 C 470.5,438.28 470.79,438.13 470.79,437.58 C 470.79,437.38 470.75,437.23 470.59,436.64 L 463.92,409.89 C 463.42,407.94 463.32,407.54 459.39,407.54 C 458.54,407.54 457.99,407.54 457.99,406.6 C 457.99,406 458.59,406 458.74,406 C 460.13,406 463.67,406.15 465.07,406.15 C 466.11,406.15 467.21,406.1 468.25,406.1 C 469.35,406.1 470.45,406 471.49,406 C 471.84,406 472.49,406 472.49,407 C 472.49,407.54 472.04,407.54 471.09,407.54 C 469.25,407.54 467.86,407.54 467.86,408.44 C 467.86,408.74 467.96,408.99 468,409.29 L 471.09,421.74 z "/><path style="fill:#000000;stroke-width:0" id="path2421" d="M 499.68,421.18 L 499.68,421.22 L 499.68,421.26 L 499.68,421.3 L 499.68,421.34 L 499.68,421.38 L 499.68,421.42 L 499.68,421.45 L 499.68,421.49 L 499.67,421.52 L 499.67,421.55 L 499.67,421.59 L 499.67,421.62 L 499.66,421.64 L 499.66,421.67 L 499.66,421.7 L 499.65,421.73 L 499.65,421.75 L 499.65,421.77 L 499.63,421.82 L 499.62,421.86 L 499.61,421.9 L 499.59,421.93 L 499.57,421.96 L 499.55,421.99 L 499.52,422.02 L 499.5,422.04 L 499.47,422.06 L 499.43,422.08 L 499.4,422.09 L 499.36,422.1 L 499.31,422.12 L 499.26,422.12 L 499.24,422.13 L 499.21,422.13 L 499.18,422.14 L 499.16,422.14 L 499.13,422.14 L 499.1,422.14 L 499.06,422.14 L 499.03,422.15 L 499,422.15 L 498.96,422.15 L 498.93,422.15 L 498.89,422.15 L 498.85,422.15 L 498.81,422.15 L 498.77,422.15 L 498.73,422.15 L 498.68,422.15 L 498.64,422.15 C 496.4,419.96 493.23,419.92 491.8,419.92 L 491.8,418.67 C 492.64,418.67 494.94,418.67 496.86,419.64 L 496.86,401.86 C 496.86,400.71 496.86,400.25 493.37,400.25 L 492.04,400.25 L 492.04,399 C 492.67,399.04 496.96,399.14 498.25,399.14 C 499.33,399.14 503.73,399.04 504.49,399 L 504.49,400.25 L 503.17,400.25 C 499.68,400.25 499.68,400.71 499.68,401.86 L 499.68,421.18 z "/></g>    </g>
    <g id="g2479" transform="matrix(6,0,0,6,13.035304,-805.42)">
      <g id="g2481" transform="matrix(7.1428571e-2,0,0,-7.1428571e-2,-12.5,180)" style="font-style:normal;font-variant:normal;font-weight:normal;font-stretch:normal;letter-spacing:normal;word-spacing:normal;text-anchor:start;fill:none;fill-opacity:1;fill-rule:evenodd;stroke:#000000;stroke-width:0.16666667;stroke-linecap:butt;stroke-linejoin:miter;stroke-miterlimit:10.43299961;stroke-dasharray:none;stroke-dashoffset:0;stroke-opacity:1" xml:space="preserve"><path id="path2483" d="M 471.09,421.74 L 471.29,423.04 L 474.68,436.59 C 475.13,438.33 475.23,438.48 477.37,438.48 L 482.15,438.48 C 486.29,438.48 488.93,437.13 488.93,433.7 C 488.93,431.75 487.93,427.47 485.99,425.68 C 483.5,423.43 480.51,423.04 478.32,423.04 L 471.29,423.04 L 471.09,421.74 L 479.56,421.74 C 486.64,421.74 493.56,426.92 493.56,432.5 C 493.56,436.34 490.27,440.02 483.75,440.02 L 467.61,440.02 C 466.66,440.02 466.11,440.02 466.11,439.07 C 466.11,438.48 466.56,438.48 467.56,438.48 C 468.2,438.48 469.1,438.43 469.7,438.38 C 470.5,438.28 470.79,438.13 470.79,437.58 C 470.79,437.38 470.75,437.23 470.59,436.64 L 463.92,409.89 C 463.42,407.94 463.32,407.54 459.39,407.54 C 458.54,407.54 457.99,407.54 457.99,406.6 C 457.99,406 458.59,406 458.74,406 C 460.13,406 463.67,406.15 465.07,406.15 C 466.11,406.15 467.21,406.1 468.25,406.1 C 469.35,406.1 470.45,406 471.49,406 C 471.84,406 472.49,406 472.49,407 C 472.49,407.54 472.04,407.54 471.09,407.54 C 469.25,407.54 467.86,407.54 467.86,408.44 C 467.86,408.74 467.96,408.99 468,409.29 L 471.09,421.74 z " style="fill:#000000;stroke-width:0"/><path id="path2485" d="M 505.61,405.35 L 504.42,405.35 C 504.32,404.58 503.97,402.52 503.52,402.17 C 503.24,401.96 500.55,401.96 500.07,401.96 L 493.65,401.96 C 497.31,405.21 498.53,406.18 500.62,407.82 C 503.2,409.88 505.61,412.04 505.61,415.36 C 505.61,419.57 501.91,422.15 497.45,422.15 C 493.13,422.15 490.2,419.12 490.2,415.91 C 490.2,414.13 491.7,413.96 492.04,413.96 C 492.88,413.96 493.89,414.55 493.89,415.81 C 493.89,416.43 493.65,417.66 491.84,417.66 C 492.92,420.13 495.29,420.9 496.93,420.9 C 500.41,420.9 502.23,418.18 502.23,415.36 C 502.23,412.32 500.07,409.91 498.95,408.66 L 490.55,400.36 C 490.2,400.05 490.2,399.98 490.2,399 L 504.56,399 L 505.61,405.35 z " style="fill:#000000;stroke-width:0"/></g>    </g>
  </g>
</svg>